<svg xmlns="http://www.w3.org/2000/svg" viewBox="0 0 64 64" width="64" height="64" class="icon" aria-hidden="true">
  <rect width="64" height="64" rx="12" fill="#ffffff" />
  <g transform="translate(8 12)" fill="currentColor">
    <path d="M24 0c-6.627 0-12 2.686-12 6v28c0 3.314 5.373 6 12 6s12-2.686 12-6V6c0-3.314-5.373-6-12-6zm0 4c4.418 0 8 1.79 8 4s-3.582 4-8 4-8-1.79-8-4 3.582-4 8-4zm0 36c-4.418 0-8-1.79-8-4v-6.5c1.92 1.07 4.6 1.8 8 1.8s6.08-.73 8-1.8V36c0 2.21-3.582 4-8 4z" />
  </g>
</svg>